{"title":"An.American.Crime.2007.x264.AC3(5.1).Multisub.mkv-Zen_Bud","uid":5813868,"size":1245932368,"categoryP":"video","categoryS":"movies","magnet":"?xt=urn:btih:87397da34ecf2c65d221286a560e0fb3caf106c2&amp;dn=+An.American.Crime.2007.x264.AC3%285.1%29.Multisub.mkv-Zen_Bud&amp;tr=udp%3A%2F%2Ftracker.openbittorrent.com%3A80&amp;tr=udp%3A%2F%2Fopen.demonii.com%3A1337&amp;tr=udp%3A%2F%2Ftracker.coppersurfer.tk%3A6969&amp;tr=udp%3A%2F%2Fexodus.desync.com%3A6969","seeders":0,"leechers":0,"uploader":"Zen_Bud","files":-1,"time":1283758769,"description":"\n****** An.American.Crime.2007.x264.AC3(5.1).Multisub.mkv-Zen_Bud *****\n\nFormat                           : Matroska\nFile size                        : 1.16 GiB\nDuration                         : 1h 33mn\nOverall bit rate                 : 1 775 Kbps\nWriting application              : HandBrake svn3506\nWriting library                  : libmkv 0.6.4.1\n\nVideo\n\nFormat                           : AVC\nDuration                         : 1h 33mn\nBit rate                         : 1 292 Kbps\nWidth                            : 720 pixels\nHeight                           : 576 pixels\nDisplay aspect ratio             : 16:9\nStream size                      : 865 MiB (73%)\nWriting library                  : x264 core 104\n\n\nAudio\n\nFormat                           : AC-3\nDuration                         : 1h 33mn\nBit rate                         : 448 Kbps\nChannel(s)                       : 6 channels\nChannel positions                : Front: L C R, Side: L R, LFE\nSampling rate                    : 48.0 KHz\nBit depth                        : 16 bits\nStream size                      : 300 MiB (25%)\nLanguage                         : English\n\nText #1\nLanguage                         : Swedish\n\nText #2\nLanguage                         : Finnish\n\nText #3\nLanguage                         : Norwegian\n\nText #4\nLanguage                         : Icelandic\n\nMenu\n00:00:00.000                     : Chapter  1\n00:04:14.440                     : Chapter  2\n\n\n","torrent":{"xt":"urn:btih:87397da34ecf2c65d221286a560e0fb3caf106c2","amp;dn":"+An.American.Crime.2007.x264.AC3%285.1%29.Multisub.mkv-Zen_Bud","amp;tr":["udp%3A%2F%2Ftracker.openbittorrent.com%3A80","udp%3A%2F%2Fopen.demonii.com%3A1337","udp%3A%2F%2Ftracker.coppersurfer.tk%3A6969","udp%3A%2F%2Fexodus.desync.com%3A6969"],"infoHash":"87397da34ecf2c65d221286a560e0fb3caf106c2","infoHashBuffer":{"type":"Buffer","data":[135,57,125,163,78,207,44,101,210,33,40,106,86,14,15,179,202,241,6,194]},"announce":[],"urlList":[]}}